<?xml version="1.0" encoding="UTF-8"?> <svg xmlns="http://www.w3.org/2000/svg" xmlns:xlink="http://www.w3.org/1999/xlink" id="Grupo_1763" data-name="Grupo 1763" width="120" height="53.404" viewBox="0 0 120 53.404"><defs><clipPath id="clip-path"><rect id="Rectángulo_6424" data-name="Rectángulo 6424" width="120" height="53.404" fill="none"></rect></clipPath></defs><g id="Grupo_1750" data-name="Grupo 1750"><g id="Grupo_1749" data-name="Grupo 1749" clip-path="url(#clip-path)"><path id="Trazado_5208" data-name="Trazado 5208" d="M93.624,34.581a.289.289,0,0,1-.273-.3V23.635a.289.289,0,0,1,.273-.3h16.055a.682.682,0,0,0,.15-.016.8.8,0,0,1,.135,0c.106.007.319.016.534.016,5.8,0,10.506-5.223,10.506-11.666S116.3,0,110.5,0c-.215,0-.428.01-.534.016a.626.626,0,0,1-.135,0,.541.541,0,0,0-.15-.016h-22.6a.868.868,0,0,0-.819.91v28.6c0,.167-.043.177-.1.02L76.254.284A.427.427,0,0,0,75.886,0H68.244a.422.422,0,0,0-.366.285L61.7,19.146c-.052.157-.135.157-.185,0l-6-18.859A.417.417,0,0,0,55.145,0H47.231a.42.42,0,0,0-.366.286L39.41,23.2a.421.421,0,0,1-.366.285l-1.965,0v0s-.123,0-.273,0H17.447a7.916,7.916,0,1,1,0-15.831,7.64,7.64,0,0,1,.766.037.756.756,0,0,0,.2,0,.854.854,0,0,1,.287-.038h16.11a.413.413,0,0,0,.361-.287s-.088.287,1.815-5.864A2.392,2.392,0,0,0,37.08.91,1.014,1.014,0,0,0,35.987,0H17.159a.982.982,0,0,0-.2.022.906.906,0,0,1-.179,0C16.637.013,16.353,0,16.066,0,8.323,0,2.047,6.969,2.047,15.566S8.323,31.133,16.066,31.133c.286,0,.57-.012.712-.022a1,1,0,0,1,.179,0,.754.754,0,0,0,.2.021H44.229a.414.414,0,0,0,.362-.286l6.371-20.561c.05-.158.13-.158.181,0l6.638,20.563a.42.42,0,0,0,.365.285h7.061a.414.414,0,0,0,.362-.286L72.214,9.553c.049-.158.127-.157.174,0l7.251,24.739a.2.2,0,0,1-.188.288H2.476a.289.289,0,0,0-.273.3V42.12a.289.289,0,0,0,.273.3H120.731a.289.289,0,0,0,.273-.3V34.884a.289.289,0,0,0-.273-.3Zm-.273-18.995h0V8.125a.289.289,0,0,1,.273-.3h16.628a.22.22,0,0,1,.052.005.35.35,0,0,0,.047,0c.036,0,.11-.005.184-.005a3.744,3.744,0,0,1,3.634,3.844,3.744,3.744,0,0,1-3.634,3.845c-.074,0-17.111,0-17.148-.006a.19.19,0,0,0-.046,0l16.911.006Z" transform="translate(-1.525)" fill="#0066d0"></path><path id="Trazado_5209" data-name="Trazado 5209" d="M5,185.936v-3.7H6.147v3.7a3.392,3.392,0,0,1-.268,1.5,1.941,1.941,0,0,1-1.91.981,1.949,1.949,0,0,1-1.914-.981,3.392,3.392,0,0,1-.268-1.5v-3.7H2.938v3.7a2.3,2.3,0,0,0,.133.907.861.861,0,0,0,.9.507.858.858,0,0,0,.894-.507A2.3,2.3,0,0,0,5,185.936" transform="translate(-1.331 -135.805)" fill="#fff"></path><path id="Trazado_5210" data-name="Trazado 5210" d="M5,185.936v-3.7H6.147v3.7a3.392,3.392,0,0,1-.268,1.5,1.941,1.941,0,0,1-1.91.981,1.949,1.949,0,0,1-1.914-.981,3.392,3.392,0,0,1-.268-1.5v-3.7H2.938v3.7a2.3,2.3,0,0,0,.133.907.861.861,0,0,0,.9.507.858.858,0,0,0,.894-.507A2.3,2.3,0,0,0,5,185.936" transform="translate(-1.331 -135.805)" fill="#0066d0"></path><path id="Trazado_5211" data-name="Trazado 5211" d="M27.484,188.257H26.35l-2.216-4.279v4.279H23.078v-6.024h1.189l2.161,4.205v-4.205h1.056Z" transform="translate(-17.198 -135.805)" fill="#fff"></path></g></g><g id="Grupo_1752" data-name="Grupo 1752" transform="translate(0 0)"><g id="Grupo_1751" data-name="Grupo 1751" clip-path="url(#clip-path)"><path id="Trazado_5212" data-name="Trazado 5212" d="M27.484,188.257H26.35l-2.216-4.279v4.279H23.078v-6.024h1.189l2.161,4.205v-4.205h1.056Z" transform="translate(-17.198 -135.805)" fill="#0066d0"></path></g></g><g id="Grupo_1754" data-name="Grupo 1754"><g id="Grupo_1753" data-name="Grupo 1753" clip-path="url(#clip-path)"><path id="Trazado_5213" data-name="Trazado 5213" d="M46.257,185.981l-.677-2.37-.7,2.37Zm.316,1.038h-2l-.376,1.238H43.015l1.936-6.023h1.281l1.921,6.023h-1.23Z" transform="translate(-32.056 -135.804)" fill="#fff"></path><path id="Trazado_5214" data-name="Trazado 5214" d="M46.257,185.981l-.677-2.37-.7,2.37Zm.316,1.038h-2l-.376,1.238H43.015l1.936-6.023h1.281l1.921,6.023h-1.23Z" transform="translate(-32.056 -135.804)" fill="#0066d0"></path><path id="Trazado_5215" data-name="Trazado 5215" d="M76.907,185.624H74.272v1.549h3v1.083H73.164v-6.024h3.979V183.3H74.272v1.279h2.635Z" transform="translate(-54.524 -135.804)" fill="#fff"></path></g></g><g id="Grupo_1756" data-name="Grupo 1756" transform="translate(0 0)"><g id="Grupo_1755" data-name="Grupo 1755" clip-path="url(#clip-path)"><path id="Trazado_5216" data-name="Trazado 5216" d="M76.907,185.624H74.272v1.549h3v1.083H73.164v-6.024h3.979V183.3H74.272v1.279h2.635Z" transform="translate(-54.524 -135.804)" fill="#0066d0"></path><path id="Trazado_5217" data-name="Trazado 5217" d="M93.753,188.257H92.7v-6.024h1.648l.987,4.737.979-4.737h1.63v6.024H96.885v-4.074c0-.117,0-.281,0-.493s0-.374,0-.487l-1.027,5.055h-1.1l-1.02-5.055c0,.114,0,.276,0,.487s0,.376,0,.493Z" transform="translate(-69.08 -135.804)" fill="#fff"></path><path id="Trazado_5218" data-name="Trazado 5218" d="M93.753,188.257H92.7v-6.024h1.648l.987,4.737.979-4.737h1.63v6.024H96.885v-4.074c0-.117,0-.281,0-.493s0-.374,0-.487l-1.027,5.055h-1.1l-1.02-5.055c0,.114,0,.276,0,.487s0,.376,0,.493Z" transform="translate(-69.08 -135.804)" fill="#0066d0"></path><path id="Trazado_5219" data-name="Trazado 5219" d="M120.32,184.837a.933.933,0,0,0,.22-.687.867.867,0,0,0-.222-.67.9.9,0,0,0-.624-.2h-1.056v1.774h1.056a.864.864,0,0,0,.626-.216m-.53,1.254h-1.152v2.166h-1.127v-6.024h2.363a1.8,1.8,0,0,1,1.3.466,1.917,1.917,0,0,1,.486,1.443,1.966,1.966,0,0,1-.486,1.508,1.993,1.993,0,0,1-1.387.441" transform="translate(-87.572 -135.804)" fill="#fff"></path><path id="Trazado_5220" data-name="Trazado 5220" d="M120.32,184.837a.933.933,0,0,0,.22-.687.867.867,0,0,0-.222-.67.9.9,0,0,0-.624-.2h-1.056v1.774h1.056a.864.864,0,0,0,.626-.216m-.53,1.254h-1.152v2.166h-1.127v-6.024h2.363a1.8,1.8,0,0,1,1.3.466,1.917,1.917,0,0,1,.486,1.443,1.966,1.966,0,0,1-.486,1.508,1.993,1.993,0,0,1-1.387.441" transform="translate(-87.572 -135.804)" fill="#0066d0"></path><path id="Trazado_5221" data-name="Trazado 5221" d="M140.214,184.8a.687.687,0,0,0,.338-.678.773.773,0,0,0-.327-.735,1.132,1.132,0,0,0-.552-.106h-1.318V184.9h1.284a1.307,1.307,0,0,0,.575-.1m-.689,1.1h-1.171v2.362h-1.107v-6.024h2.661a2.279,2.279,0,0,1,.878.155,1.385,1.385,0,0,1,.521.421,1.922,1.922,0,0,1,.28.507,1.825,1.825,0,0,1,.1.633,1.964,1.964,0,0,1-.195.844,1.126,1.126,0,0,1-.644.587,1.042,1.042,0,0,1,.531.476,2.168,2.168,0,0,1,.156.942v.4a3.352,3.352,0,0,0,.03.559.505.505,0,0,0,.206.344v.151h-1.247c-.035-.134-.059-.241-.074-.323a3.258,3.258,0,0,1-.048-.519l-.007-.559a1.187,1.187,0,0,0-.189-.769.935.935,0,0,0-.683-.192" transform="translate(-102.28 -135.805)" fill="#fff"></path><path id="Trazado_5222" data-name="Trazado 5222" d="M140.214,184.8a.687.687,0,0,0,.338-.678.773.773,0,0,0-.327-.735,1.132,1.132,0,0,0-.552-.106h-1.318V184.9h1.284a1.307,1.307,0,0,0,.575-.1m-.689,1.1h-1.171v2.362h-1.107v-6.024h2.661a2.279,2.279,0,0,1,.878.155,1.385,1.385,0,0,1,.521.421,1.922,1.922,0,0,1,.28.507,1.825,1.825,0,0,1,.1.633,1.964,1.964,0,0,1-.195.844,1.126,1.126,0,0,1-.644.587,1.042,1.042,0,0,1,.531.476,2.168,2.168,0,0,1,.156.942v.4a3.352,3.352,0,0,0,.03.559.505.505,0,0,0,.206.344v.151h-1.247c-.035-.134-.059-.241-.074-.323a3.258,3.258,0,0,1-.048-.519l-.007-.559a1.187,1.187,0,0,0-.189-.769.935.935,0,0,0-.683-.192" transform="translate(-102.28 -135.805)" fill="#0066d0"></path></g></g><g id="Grupo_1758" data-name="Grupo 1758"><g id="Grupo_1757" data-name="Grupo 1757" clip-path="url(#clip-path)"><path id="Trazado_5223" data-name="Trazado 5223" d="M162.383,185.624h-2.635v1.549h3v1.083h-4.112v-6.024h3.979V183.3h-2.871v1.279h2.635Z" transform="translate(-118.222 -135.804)" fill="#fff"></path><path id="Trazado_5224" data-name="Trazado 5224" d="M162.383,185.624h-2.635v1.549h3v1.083h-4.112v-6.024h3.979V183.3h-2.871v1.279h2.635Z" transform="translate(-118.222 -135.804)" fill="#0066d0"></path><path id="Trazado_5225" data-name="Trazado 5225" d="M179.447,186.874a1.807,1.807,0,0,0,.651-.1.693.693,0,0,0,.475-.7.528.528,0,0,0-.236-.462,2.366,2.366,0,0,0-.739-.282l-.574-.143a3.406,3.406,0,0,1-1.171-.462,1.532,1.532,0,0,1-.549-1.3,1.832,1.832,0,0,1,.53-1.344,2.1,2.1,0,0,1,1.556-.535,2.215,2.215,0,0,1,1.464.5,1.883,1.883,0,0,1,.635,1.465H180.4a.881.881,0,0,0-.427-.772,1.312,1.312,0,0,0-.659-.151,1.139,1.139,0,0,0-.7.2.645.645,0,0,0-.262.548.529.529,0,0,0,.258.482,2.923,2.923,0,0,0,.706.25l.935.248a2.313,2.313,0,0,1,.928.437,1.548,1.548,0,0,1,.486,1.231,1.823,1.823,0,0,1-.569,1.371,2.228,2.228,0,0,1-1.606.546,2.426,2.426,0,0,1-1.667-.538,1.871,1.871,0,0,1-.608-1.477H178.3a1.325,1.325,0,0,0,.2.617,1.1,1.1,0,0,0,.946.372" transform="translate(-132.066 -135.291)" fill="#fff"></path><path id="Trazado_5226" data-name="Trazado 5226" d="M179.447,186.874a1.807,1.807,0,0,0,.651-.1.693.693,0,0,0,.475-.7.528.528,0,0,0-.236-.462,2.366,2.366,0,0,0-.739-.282l-.574-.143a3.406,3.406,0,0,1-1.171-.462,1.532,1.532,0,0,1-.549-1.3,1.832,1.832,0,0,1,.53-1.344,2.1,2.1,0,0,1,1.556-.535,2.215,2.215,0,0,1,1.464.5,1.883,1.883,0,0,1,.635,1.465H180.4a.881.881,0,0,0-.427-.772,1.312,1.312,0,0,0-.659-.151,1.139,1.139,0,0,0-.7.2.645.645,0,0,0-.262.548.529.529,0,0,0,.258.482,2.923,2.923,0,0,0,.706.25l.935.248a2.313,2.313,0,0,1,.928.437,1.548,1.548,0,0,1,.486,1.231,1.823,1.823,0,0,1-.569,1.371,2.228,2.228,0,0,1-1.606.546,2.426,2.426,0,0,1-1.667-.538,1.871,1.871,0,0,1-.608-1.477H178.3a1.325,1.325,0,0,0,.2.617,1.1,1.1,0,0,0,.946.372" transform="translate(-132.066 -135.291)" fill="#0066d0"></path><path id="Trazado_5227" data-name="Trazado 5227" d="M199.714,185.981l-.677-2.37-.7,2.37Zm.316,1.038h-2l-.376,1.238h-1.185l1.937-6.023h1.281l1.921,6.023h-1.23Z" transform="translate(-146.415 -135.804)" fill="#fff"></path><path id="Trazado_5228" data-name="Trazado 5228" d="M199.714,185.981l-.677-2.37-.7,2.37Zm.316,1.038h-2l-.376,1.238h-1.185l1.937-6.023h1.281l1.921,6.023h-1.23Z" transform="translate(-146.415 -135.804)" fill="#0066d0"></path><path id="Trazado_5229" data-name="Trazado 5229" d="M229.677,183.77a1.064,1.064,0,0,0-1.034-.49H227.6v3.931h1.045a1.143,1.143,0,0,0,1.119-.879,3.43,3.43,0,0,0,.173-1.149,3.133,3.133,0,0,0-.257-1.414m-.843,4.487H226.5v-6.024h2.337a2.6,2.6,0,0,1,.839.131,1.814,1.814,0,0,1,.923.764,2.838,2.838,0,0,1,.386.972,5.215,5.215,0,0,1,.1,1,4.368,4.368,0,0,1-.434,2.036,1.929,1.929,0,0,1-1.818,1.123" transform="translate(-168.791 -135.804)" fill="#fff"></path><path id="Trazado_5230" data-name="Trazado 5230" d="M229.677,183.77a1.064,1.064,0,0,0-1.034-.49H227.6v3.931h1.045a1.143,1.143,0,0,0,1.119-.879,3.43,3.43,0,0,0,.173-1.149,3.133,3.133,0,0,0-.257-1.414m-.843,4.487H226.5v-6.024h2.337a2.6,2.6,0,0,1,.839.131,1.814,1.814,0,0,1,.923.764,2.838,2.838,0,0,1,.386.972,5.215,5.215,0,0,1,.1,1,4.368,4.368,0,0,1-.434,2.036,1.929,1.929,0,0,1-1.818,1.123" transform="translate(-168.791 -135.804)" fill="#0066d0"></path><path id="Trazado_5231" data-name="Trazado 5231" d="M251.733,185.624H249.1v1.549h3v1.083H247.99v-6.024h3.979V183.3H249.1v1.279h2.635Z" transform="translate(-184.808 -135.804)" fill="#fff"></path></g></g><g id="Grupo_1760" data-name="Grupo 1760" transform="translate(0 0)"><g id="Grupo_1759" data-name="Grupo 1759" clip-path="url(#clip-path)"><path id="Trazado_5232" data-name="Trazado 5232" d="M251.733,185.624H249.1v1.549h3v1.083H247.99v-6.024h3.979V183.3H249.1v1.279h2.635Z" transform="translate(-184.808 -135.804)" fill="#0066d0"></path></g></g><g id="Grupo_1762" data-name="Grupo 1762"><g id="Grupo_1761" data-name="Grupo 1761" clip-path="url(#clip-path)"><path id="Trazado_5233" data-name="Trazado 5233" d="M267.594,182.233h1.134v4.941h2.687v1.083h-3.82Z" transform="translate(-199.417 -135.804)" fill="#fff"></path><path id="Trazado_5234" data-name="Trazado 5234" d="M267.594,182.233h1.134v4.941h2.687v1.083h-3.82Z" transform="translate(-199.417 -135.804)" fill="#0066d0"></path><path id="Trazado_5235" data-name="Trazado 5235" d="M295.944,187.656a1.912,1.912,0,0,1-1.1.307,2.192,2.192,0,0,1-1.767-.83,3.38,3.38,0,0,1-.718-2.281,3.584,3.584,0,0,1,.725-2.346,2.585,2.585,0,0,1,3.579-.3,2.241,2.241,0,0,1,.719,1.453h-1.115a1.161,1.161,0,0,0-.63-.862,1.413,1.413,0,0,0-.622-.135,1.3,1.3,0,0,0-1.076.549,2.7,2.7,0,0,0-.421,1.654,2.2,2.2,0,0,0,.456,1.573,1.422,1.422,0,0,0,1.038.462,1.263,1.263,0,0,0,.935-.366,1.647,1.647,0,0,0,.449-.959h-1.255V184.57H297.4V187.8h-.75l-.115-.752a2.709,2.709,0,0,1-.589.6" transform="translate(-217.87 -135.35)" fill="#fff"></path><path id="Trazado_5236" data-name="Trazado 5236" d="M295.944,187.656a1.912,1.912,0,0,1-1.1.307,2.192,2.192,0,0,1-1.767-.83,3.38,3.38,0,0,1-.718-2.281,3.584,3.584,0,0,1,.725-2.346,2.585,2.585,0,0,1,3.579-.3,2.241,2.241,0,0,1,.719,1.453h-1.115a1.161,1.161,0,0,0-.63-.862,1.413,1.413,0,0,0-.622-.135,1.3,1.3,0,0,0-1.076.549,2.7,2.7,0,0,0-.421,1.654,2.2,2.2,0,0,0,.456,1.573,1.422,1.422,0,0,0,1.038.462,1.263,1.263,0,0,0,.935-.366,1.647,1.647,0,0,0,.449-.959h-1.255V184.57H297.4V187.8h-.75l-.115-.752a2.709,2.709,0,0,1-.589.6" transform="translate(-217.87 -135.35)" fill="#0066d0"></path><path id="Trazado_5237" data-name="Trazado 5237" d="M319.46,184.8a.687.687,0,0,0,.338-.678.773.773,0,0,0-.327-.735,1.132,1.132,0,0,0-.552-.106H317.6V184.9h1.284a1.307,1.307,0,0,0,.575-.1m-.689,1.1H317.6v2.362h-1.108v-6.024h2.662a2.279,2.279,0,0,1,.878.155,1.385,1.385,0,0,1,.521.421,1.923,1.923,0,0,1,.28.507,1.825,1.825,0,0,1,.1.633,1.964,1.964,0,0,1-.195.844,1.126,1.126,0,0,1-.644.587,1.042,1.042,0,0,1,.531.476,2.168,2.168,0,0,1,.156.942v.4a3.354,3.354,0,0,0,.03.559.505.505,0,0,0,.206.344v.151h-1.247c-.035-.134-.059-.241-.074-.323a3.223,3.223,0,0,1-.048-.519l-.007-.559a1.186,1.186,0,0,0-.189-.769.935.935,0,0,0-.683-.192" transform="translate(-235.858 -135.805)" fill="#fff"></path><path id="Trazado_5238" data-name="Trazado 5238" d="M319.46,184.8a.687.687,0,0,0,.338-.678.773.773,0,0,0-.327-.735,1.132,1.132,0,0,0-.552-.106H317.6V184.9h1.284a1.307,1.307,0,0,0,.575-.1m-.689,1.1H317.6v2.362h-1.108v-6.024h2.662a2.279,2.279,0,0,1,.878.155,1.385,1.385,0,0,1,.521.421,1.923,1.923,0,0,1,.28.507,1.825,1.825,0,0,1,.1.633,1.964,1.964,0,0,1-.195.844,1.126,1.126,0,0,1-.644.587,1.042,1.042,0,0,1,.531.476,2.168,2.168,0,0,1,.156.942v.4a3.354,3.354,0,0,0,.03.559.505.505,0,0,0,.206.344v.151h-1.247c-.035-.134-.059-.241-.074-.323a3.223,3.223,0,0,1-.048-.519l-.007-.559a1.186,1.186,0,0,0-.189-.769.935.935,0,0,0-.683-.192" transform="translate(-235.858 -135.805)" fill="#0066d0"></path><path id="Trazado_5239" data-name="Trazado 5239" d="M340.969,185.936v-3.7h1.152v3.7a3.392,3.392,0,0,1-.268,1.5,2.353,2.353,0,0,1-3.824,0,3.392,3.392,0,0,1-.268-1.5v-3.7h1.152v3.7a2.3,2.3,0,0,0,.133.907,1.046,1.046,0,0,0,1.792,0,2.3,2.3,0,0,0,.133-.907" transform="translate(-251.706 -135.805)" fill="#fff"></path><path id="Trazado_5240" data-name="Trazado 5240" d="M340.969,185.936v-3.7h1.152v3.7a3.392,3.392,0,0,1-.268,1.5,2.353,2.353,0,0,1-3.824,0,3.392,3.392,0,0,1-.268-1.5v-3.7h1.152v3.7a2.3,2.3,0,0,0,.133.907,1.046,1.046,0,0,0,1.792,0,2.3,2.3,0,0,0,.133-.907" transform="translate(-251.706 -135.805)" fill="#0066d0"></path><path id="Trazado_5241" data-name="Trazado 5241" d="M362.032,184.837a.929.929,0,0,0,.22-.687.867.867,0,0,0-.222-.67.9.9,0,0,0-.624-.2H360.35v1.774h1.056a.865.865,0,0,0,.626-.216m-.53,1.254H360.35v2.166h-1.127v-6.024h2.363a1.8,1.8,0,0,1,1.3.466,1.917,1.917,0,0,1,.486,1.443,1.966,1.966,0,0,1-.486,1.508,1.993,1.993,0,0,1-1.387.441" transform="translate(-267.701 -135.804)" fill="#fff"></path><path id="Trazado_5242" data-name="Trazado 5242" d="M362.032,184.837a.929.929,0,0,0,.22-.687.867.867,0,0,0-.222-.67.9.9,0,0,0-.624-.2H360.35v1.774h1.056a.865.865,0,0,0,.626-.216m-.53,1.254H360.35v2.166h-1.127v-6.024h2.363a1.8,1.8,0,0,1,1.3.466,1.917,1.917,0,0,1,.486,1.443,1.966,1.966,0,0,1-.486,1.508,1.993,1.993,0,0,1-1.387.441" transform="translate(-267.701 -135.804)" fill="#0066d0"></path><path id="Trazado_5243" data-name="Trazado 5243" d="M381.733,186.267a3.312,3.312,0,0,0,0-3.136,1.246,1.246,0,0,0-1.069-.554,1.261,1.261,0,0,0-1.074.552,3.27,3.27,0,0,0,0,3.138,1.319,1.319,0,0,0,2.145,0m-1.071,1.618a2.234,2.234,0,0,1-1.777-.7,3.456,3.456,0,0,1-.825-2.484,3.389,3.389,0,0,1,.825-2.485,2.6,2.6,0,0,1,3.555,0,3.4,3.4,0,0,1,.821,2.485,3.463,3.463,0,0,1-.821,2.484,2.234,2.234,0,0,1-1.777.7" transform="translate(-281.739 -135.265)" fill="#fff"></path><path id="Trazado_5244" data-name="Trazado 5244" d="M381.733,186.267a3.312,3.312,0,0,0,0-3.136,1.246,1.246,0,0,0-1.069-.554,1.261,1.261,0,0,0-1.074.552,3.27,3.27,0,0,0,0,3.138,1.319,1.319,0,0,0,2.145,0m-1.071,1.618a2.234,2.234,0,0,1-1.777-.7,3.456,3.456,0,0,1-.825-2.484,3.389,3.389,0,0,1,.825-2.485,2.6,2.6,0,0,1,3.555,0,3.4,3.4,0,0,1,.821,2.485,3.463,3.463,0,0,1-.821,2.484,2.234,2.234,0,0,1-1.777.7" transform="translate(-281.739 -135.265)" fill="#0066d0"></path><path id="Trazado_5245" data-name="Trazado 5245" d="M413.226,187.472a2.085,2.085,0,0,1-1.553.617,2.23,2.23,0,0,1-1.84-.833,3.581,3.581,0,0,1-.671-2.3,3.53,3.53,0,0,1,.762-2.431,2.157,2.157,0,0,1,1.686-.744,2.2,2.2,0,0,1,2,1,2.313,2.313,0,0,1,.376,1.123h-1.134a1.777,1.777,0,0,0-.283-.654,1.193,1.193,0,0,0-1.892.162,2.887,2.887,0,0,0-.356,1.567,2.524,2.524,0,0,0,.377,1.517,1.151,1.151,0,0,0,.959.5,1.051,1.051,0,0,0,.91-.433,1.974,1.974,0,0,0,.287-.7h1.122a2.816,2.816,0,0,1-.75,1.6" transform="translate(-304.918 -135.469)" fill="#fff"></path><path id="Trazado_5246" data-name="Trazado 5246" d="M413.226,187.472a2.085,2.085,0,0,1-1.553.617,2.23,2.23,0,0,1-1.84-.833,3.581,3.581,0,0,1-.671-2.3,3.53,3.53,0,0,1,.762-2.431,2.157,2.157,0,0,1,1.686-.744,2.2,2.2,0,0,1,2,1,2.313,2.313,0,0,1,.376,1.123h-1.134a1.777,1.777,0,0,0-.283-.654,1.193,1.193,0,0,0-1.892.162,2.887,2.887,0,0,0-.356,1.567,2.524,2.524,0,0,0,.377,1.517,1.151,1.151,0,0,0,.959.5,1.051,1.051,0,0,0,.91-.433,1.974,1.974,0,0,0,.287-.7h1.122a2.816,2.816,0,0,1-.75,1.6" transform="translate(-304.918 -135.469)" fill="#0066d0"></path><path id="Trazado_5247" data-name="Trazado 5247" d="M433.193,185.981l-.677-2.37-.7,2.37Zm.316,1.038h-2l-.376,1.238H429.95l1.937-6.023h1.281l1.921,6.023h-1.23Z" transform="translate(-320.409 -135.804)" fill="#fff"></path><path id="Trazado_5248" data-name="Trazado 5248" d="M433.193,185.981l-.677-2.37-.7,2.37Zm.316,1.038h-2l-.376,1.238H429.95l1.937-6.023h1.281l1.921,6.023h-1.23Z" transform="translate(-320.409 -135.804)" fill="#0066d0"></path><path id="Trazado_5249" data-name="Trazado 5249" d="M455.73,184.837a.928.928,0,0,0,.22-.687.867.867,0,0,0-.222-.67.9.9,0,0,0-.624-.2h-1.056v1.774H455.1a.864.864,0,0,0,.626-.216m-.53,1.254h-1.152v2.166h-1.126v-6.024h2.362a1.8,1.8,0,0,1,1.3.466,1.918,1.918,0,0,1,.487,1.443,1.966,1.966,0,0,1-.487,1.508,1.993,1.993,0,0,1-1.387.441" transform="translate(-337.528 -135.804)" fill="#fff"></path><path id="Trazado_5250" data-name="Trazado 5250" d="M455.73,184.837a.928.928,0,0,0,.22-.687.867.867,0,0,0-.222-.67.9.9,0,0,0-.624-.2h-1.056v1.774H455.1a.864.864,0,0,0,.626-.216m-.53,1.254h-1.152v2.166h-1.126v-6.024h2.362a1.8,1.8,0,0,1,1.3.466,1.918,1.918,0,0,1,.487,1.443,1.966,1.966,0,0,1-.487,1.508,1.993,1.993,0,0,1-1.387.441" transform="translate(-337.528 -135.804)" fill="#0066d0"></path></g></g></svg> 